<svg xmlns="http://www.w3.org/2000/svg" width="31.075" height="31.075" viewBox="0 0 31.075 31.075">
  <path id="account-icon" d="M15.538.563A15.538,15.538,0,1,0,31.075,16.1,15.535,15.535,0,0,0,15.538.563Zm0,6.015a5.513,5.513,0,1,1-5.513,5.513A5.513,5.513,0,0,1,15.538,6.577Zm0,21.552a12.006,12.006,0,0,1-9.178-4.273A6.985,6.985,0,0,1,12.53,20.11a1.533,1.533,0,0,1,.445.069,8.3,8.3,0,0,0,2.562.432,8.264,8.264,0,0,0,2.562-.432,1.533,1.533,0,0,1,.445-.069,6.985,6.985,0,0,1,6.171,3.747A12.006,12.006,0,0,1,15.538,28.129Z" transform="translate(0 -0.563)" fill="#fff"/>
</svg>
